# xmcd
#
# Track frame offsets:
#	150
#	15248
#	36532
#	50241
#	62820
#	80708
#	92191
#	106942
#	121147
#	141314
#	154768
#	165669
#	180519
#	186609
#	201229
#	213211
#	226599
#
# Disc length: 3228 seconds
#
# Revision: 1
# Processed by: cddbd v1.5.2PL0 Copyright (c) Steve Scherf et al.
# Submitted via: audiograbber 1.83.01
#
DISCID=ed0c9a11
DTITLE=Tad Marks - The Back Road Home
DYEAR=2004
DGENRE=Bluegrass
TTITLE0=The Orange Blossom Special
TTITLE1=Navajo Nights
TTITLE2=Handsome Molly
TTITLE3=Grand Mamou
TTITLE4=You Are The One
TTITLE5=New Money
TTITLE6=A Whole Lotta Love
TTITLE7=Oklahome Redbird
TTITLE8=Tombigee Waltz
TTITLE9=A Love Of A Lifetime
TTITLE10=Coffee In The Rain
TTITLE11=Red Wing
TTITLE12=Fire On The Mountain
TTITLE13=High Bar Harbor
TTITLE14=Little Rabbit
TTITLE15=Powder Creek
TTITLE16=The Back Road Home
EXTD=
EXTT0=
EXTT1=
EXTT2=
EXTT3=
EXTT4=
EXTT5=
EXTT6=
EXTT7=
EXTT8=
EXTT9=
EXTT10=
EXTT11=
EXTT12=
EXTT13=
EXTT14=
EXTT15=
EXTT16=
PLAYORDER=
